<svg xmlns="http://www.w3.org/2000/svg" viewBox="0 0 89.26 90.38"><defs><style>.cls-1{opacity:0.8;}.cls-2{fill:#86a587;}.cls-3{fill:#919191;}.cls-4{fill:none;stroke:#929292;stroke-miterlimit:10;stroke-width:2.13px;}</style></defs><g id="レイヤー_2" data-name="レイヤー 2"><g id="レイヤー_1-2" data-name="レイヤー 1"><g class="cls-1"><path class="cls-2" d="M72.82,51.49C57,88.34,4.77,76.23,4.77,76.23s-15.93-40.66,20-63.18C42.87,1.73,84.84,0,84.84,0s4.34,24.32-3.38,39.93c0,0-8.49-7-12.89-.66C64.48,45.14,72.82,51.49,72.82,51.49Z"/><path class="cls-2" d="M84.84,0h0C51.32,17.06,22.64,48.9,0,81.74"/><path class="cls-2" d="M44,7.82c9.55,7.2,4.91,17.44,4.91,17.44"/><path class="cls-2" d="M37.34,35.77C53.49,25.26,64.09,32,64.09,32"/><path class="cls-2" d="M60.59,15.61c10.25-5.38,17.91.46,17.91.46"/><path class="cls-2" d="M20.27,22.2c18.83,8.65,7.5,24.2,7.5,24.2"/></g><g id="レイヤー_3" data-name="レイヤー 3"><rect id="長方形_39" data-name="長方形 39" class="cls-3" x="39.29" y="61.88" width="3.83" height="14.55"/><rect id="長方形_40" data-name="長方形 40" class="cls-3" x="34.36" y="57.08" width="3.83" height="19.35"/><path id="パス_196" data-name="パス 196" class="cls-3" d="M41,51.73l-1.72,0v3.52l1.78,0c3.13,0,7.85-.14,9.46,1.43A1.86,1.86,0,0,1,51,58.11c0,1-.75,1.66-2.46,2.87-1.9,1.35-4.5,3.2-4.5,6.94,0,2.14,1,5.07,5.66,7a26,26,0,0,0,9.36,1.56V72.9c-4.77,0-11.49-1.35-11.49-5,0-1.83,1.14-2.74,3-4.06S54.55,61,54.55,58.1a5.42,5.42,0,0,0-1.61-4C50.28,51.57,45.11,51.65,41,51.73Z"/><path id="パス_197" data-name="パス 197" class="cls-3" d="M43.13,59.16a1.93,1.93,0,1,1-1.93-1.93h0A1.93,1.93,0,0,1,43.13,59.16Z"/><path id="パス_198" data-name="パス 198" class="cls-3" d="M38,54.16a1.74,1.74,0,1,1-1.74-1.74h0A1.74,1.74,0,0,1,38,54.16Z"/></g><path class="cls-4" d="M75,59.53c-15.87,36.85-68,24.74-68,24.74S-9,43.61,26.93,21.09C45,9.77,87,8,87,8S91.32,32.37,83.6,48c0,0-8.49-7-12.9-.66C66.62,53.18,75,59.53,75,59.53Z"/><path class="cls-4" d="M87,8h0C53.45,25.1,24.78,56.94,2.14,89.78"/><path class="cls-4" d="M46.09,15.86C55.64,23.06,51,33.3,51,33.3"/><path class="cls-4" d="M39.48,43.81c16.14-10.51,26.75-3.74,26.75-3.74"/><path class="cls-4" d="M62.73,23.65c10.25-5.38,17.9.46,17.9.46"/><path class="cls-4" d="M22.41,30.24c18.83,8.65,7.5,24.2,7.5,24.2"/></g></g></svg>