<svg xmlns="http://www.w3.org/2000/svg" viewBox="0 0 141.65 117.42"><defs><style>.cls-1,.cls-3,.cls-4{fill:none;}.cls-1{stroke:#869da3;}.cls-1,.cls-4{stroke-miterlimit:10;}.cls-1,.cls-2{opacity:0.8;}.cls-2{fill:#869da3;}.cls-3,.cls-4{stroke:#919191;stroke-width:0.99px;}.cls-3{stroke-linecap:round;stroke-linejoin:round;}.cls-5{fill:#919191;}</style></defs><g id="レイヤー_2" data-name="レイヤー 2"><g id="レイヤー_1-2" data-name="レイヤー 1"><path id="パス_190" data-name="パス 190" class="cls-1" d="M93.47,75.2l.1-1.67c.37-2.91,1.52-31.86,1.56-35.28a124.12,124.12,0,0,0-1.94-17.93C91.55,13.92,85.7,9,85.7,9"/><path id="パス_191" data-name="パス 191" class="cls-1" d="M85.7,9A6.92,6.92,0,0,1,85,6.32a42.92,42.92,0,0,1,1.33-5.13s.58-2.38-1.17,1.69A17.5,17.5,0,0,1,84,5.24C82.89,7,82.24,7,82.24,7c-1.64,0-8.84-.77-12,.93C68.22,9,62.16,11.4,56.37,16.82,54.63,18.43,29.68,49,29.81,48.34L28.61,50"/><line id="線_12" data-name="線 12" class="cls-1" x1="62.91" y1="58" x2="51.95" y2="84.56"/><path id="パス_193" data-name="パス 193" class="cls-1" d="M63.36,58.29,53.28,83a7.57,7.57,0,0,0-.5,1.7,7.41,7.41,0,0,0-.1,1.76h0a4.36,4.36,0,0,1-.37,1.16c-.86,2-2,5.3-2,5.3-.58,1.71-3,7.6-4,9.66a7.62,7.62,0,0,1-4.44,4.23,5.32,5.32,0,0,1-1.73.23,6.21,6.21,0,0,1-5.73-4.41,4,4,0,0,1-.16-.85,5.11,5.11,0,0,1,.9-3.12h0a15.18,15.18,0,0,1,2.28-2.39l.11-.09c1.21-.81,1.85.8,1.21,1.12l-.72.6a5.05,5.05,0,0,0-1.46,2,3.71,3.71,0,0,0,.14,3.4c1,1.74,3.7,1.58,3.7,1.58a1.06,1.06,0,0,0,.5-.06,5.41,5.41,0,0,0,3.34-2.48,23.41,23.41,0,0,0,1.58-3.07L50.46,86.7l1.4-2.39.74.32"/><path id="パス_194" data-name="パス 194" class="cls-2" d="M29.86,48.14c.25.12,21.8,5.52,21.79,5.41s9.54,3.22,12.16,4.35l12.58,5.4c1.48.63,7.17,3.63,9.3,4.87,3.44,2,7.67,5,7.88,5.14,2.59-2,17.61-1.21,19.25-.94,0,0,11.81,1.83,16.14,5.79.13.12.74,2,.7,1.84-1.14-4.4-8.16-32-10.48-37.77a66.53,66.53,0,0,0-9.77-16.18,49.52,49.52,0,0,0-8.19-7.32C94.45,13.41,86.85,9.66,84.93,8.4a10.07,10.07,0,0,0-1.84-1l-.22-.09a5.12,5.12,0,0,0-1-.38C79.23,6.35,78,6,76.67,5.53A90.55,90.55,0,0,0,62.5,3.15,59.17,59.17,0,0,0,48,3.76,85.13,85.13,0,0,0,28.25,11.3c-12.8,6.8-26.9,15.94-26.76,16,1.84.8,5.63,0,15.3,7.25,4.38,3.28,5.24,4.83,9.27,9.26C26.89,44.71,30,48.34,29.86,48.14Z"/><path id="パス_195" data-name="パス 195" class="cls-1" d="M.28,28.1l2.41-1.61Z"/><g id="_parasol-5" data-name=" parasol-5"><g id="レイヤー_2-2" data-name="レイヤー 2"><path id="パス_190-2" data-name="パス 190" class="cls-3" d="M105,85.23l.1-1.67c.37-2.91,1.53-31.86,1.56-35.28a122.73,122.73,0,0,0-1.94-17.93C103.05,24,97.19,19,97.19,19"/><path id="パス_191-2" data-name="パス 191" class="cls-3" d="M97.19,19a7,7,0,0,1-.7-2.68,42.92,42.92,0,0,1,1.33-5.13s.58-2.38-1.17,1.69a16.76,16.76,0,0,1-1.2,2.35C94.39,17,93.73,17,93.73,17c-1.63,0-8.84-.77-12,.93-2.07,1.13-8.12,3.51-13.92,8.93C66.13,28.46,41.18,59,41.31,58.37L40.1,60"/><line id="線_12-2" data-name="線 12" class="cls-4" x1="74.41" y1="68.03" x2="63.44" y2="94.59"/><path id="パス_193-2" data-name="パス 193" class="cls-4" d="M75,68.19,64.93,92.88a7.88,7.88,0,0,0-.5,1.7,7.52,7.52,0,0,0-.1,1.77h0A4.36,4.36,0,0,1,64,97.51c-.86,2-2,5.29-2,5.29-.58,1.72-3,7.6-4,9.67a7.53,7.53,0,0,1-4.43,4.22,5.65,5.65,0,0,1-1.73.24,6.23,6.23,0,0,1-5.73-4.41,4.11,4.11,0,0,1-.16-.85,5.09,5.09,0,0,1,.9-3.12h0a15.69,15.69,0,0,1,2.28-2.4l.11-.09c1.21-.8,1.85.81,1.21,1.12l-.72.6a5.13,5.13,0,0,0-1.46,2,3.71,3.71,0,0,0,.14,3.4c1,1.75,3.7,1.59,3.7,1.59a1.21,1.21,0,0,0,.5-.06,5.43,5.43,0,0,0,3.34-2.49,23.29,23.29,0,0,0,1.58-3.06l4.62-12.51,1.4-2.39.74.32"/><path id="パス_194-2" data-name="パス 194" class="cls-3" d="M41.35,58.38c.26.12,21.8,5.52,21.79,5.42S72.68,67,75.3,68.14l12.58,5.41c1.48.63,7.17,3.62,9.3,4.87,3.45,2,7.68,5,7.88,5.14,2.59-2,17.61-1.21,19.25-.94,0,0,11.82,1.83,16.14,5.78a18.84,18.84,0,0,1,.7,1.84c-1.14-4.4-8.16-32-10.47-37.76A66.88,66.88,0,0,0,120.9,36.3,48.68,48.68,0,0,0,112.71,29c-6.77-5.32-14.37-9.07-16.29-10.33a9.8,9.8,0,0,0-1.84-1l-.21-.08a5.36,5.36,0,0,0-1-.38c-2.64-.62-3.85-1-5.2-1.45A90.41,90.41,0,0,0,74,13.4,58.68,58.68,0,0,0,59.5,14c-3.39.62-12.09,3.46-19.76,7.53-12.8,6.8-26.9,15.94-26.76,16,1.85.81,5.64,0,15.31,7.25,4.38,3.29,5.23,4.84,9.26,9.27C38.38,55,41.48,58.59,41.35,58.38Z"/><path id="パス_195-2" data-name="パス 195" class="cls-3" d="M11.08,38.77l2.42-1.61Z"/></g><g id="レイヤー_3" data-name="レイヤー 3"><rect id="長方形_39" data-name="長方形 39" class="cls-5" x="115.71" y="63.94" width="3.83" height="14.55"/><rect id="長方形_40" data-name="長方形 40" class="cls-5" x="110.78" y="59.14" width="3.83" height="19.35"/><path id="パス_196" data-name="パス 196" class="cls-5" d="M117.38,53.79l-1.72,0v3.52l1.78,0c3.13-.05,7.85-.14,9.46,1.42a1.88,1.88,0,0,1,.55,1.44c0,1-.75,1.66-2.46,2.87-1.9,1.35-4.5,3.19-4.5,6.94,0,2.14,1,5.07,5.66,7a25.75,25.75,0,0,0,9.36,1.55V75C130.74,75,124,73.61,124,70c0-1.83,1.14-2.74,3-4.06S131,63.1,131,60.16a5.46,5.46,0,0,0-1.61-3.95C126.7,53.62,121.53,53.71,117.38,53.79Z"/><path id="パス_197" data-name="パス 197" class="cls-5" d="M119.55,61.22a1.93,1.93,0,1,1-1.93-1.93h0A1.93,1.93,0,0,1,119.55,61.22Z"/><path id="パス_198" data-name="パス 198" class="cls-5" d="M114.43,56.22a1.74,1.74,0,1,1-1.74-1.74h0A1.74,1.74,0,0,1,114.43,56.22Z"/></g></g></g></g></svg>