<svg xmlns="http://www.w3.org/2000/svg" xmlns:xlink="http://www.w3.org/1999/xlink" viewBox="0 0 285.81 66.65"><defs><style>.cls-1{fill:url(#名称未設定グラデーション_29);}.cls-2{fill:url(#名称未設定グラデーション_29-2);}.cls-3{fill:url(#名称未設定グラデーション_29-3);}.cls-4{fill:url(#名称未設定グラデーション_29-4);}.cls-5{fill:#929292;}.cls-6{clip-path:url(#clip-path);}.cls-7{fill:url(#名称未設定グラデーション_29-6);}.cls-8{clip-path:url(#clip-path-2);}.cls-9{fill:url(#名称未設定グラデーション_29-8);}.cls-10{clip-path:url(#clip-path-3);}.cls-11{fill:url(#名称未設定グラデーション_29-10);}.cls-12{clip-path:url(#clip-path-4);}.cls-13{fill:url(#名称未設定グラデーション_29-12);}</style><linearGradient id="名称未設定グラデーション_29" x1="2.05" y1="29.81" x2="55.74" y2="29.81" gradientUnits="userSpaceOnUse"><stop offset="0" stop-color="#fff"/><stop offset="0.09" stop-color="#f0f0f0"/><stop offset="0.37" stop-color="#c8c8c8"/><stop offset="0.62" stop-color="#aaa"/><stop offset="0.84" stop-color="#989898"/><stop offset="1" stop-color="#929292"/></linearGradient><linearGradient id="名称未設定グラデーション_29-2" x1="0.48" y1="15.94" x2="31.29" y2="15.94" xlink:href="#名称未設定グラデーション_29"/><linearGradient id="名称未設定グラデーション_29-3" x1="0" y1="22.67" x2="46.5" y2="22.67" xlink:href="#名称未設定グラデーション_29"/><linearGradient id="名称未設定グラデーション_29-4" x1="8.43" y1="38.79" x2="66.72" y2="38.79" xlink:href="#名称未設定グラデーション_29"/><clipPath id="clip-path"><path class="cls-1" d="M33.81,22.46l3.36-5.8,2.44,4.23L36.26,26.7Zm6.71-11.61,1-1.69c.09-.16.29-.48.41-.64a7.47,7.47,0,0,1,2.65-2.28l.18.29,1.64,2.85a8,8,0,0,0-.75,1.08L43,15.08Zm.75-2.79c-.16.23-.32.47-.46.71L19.71,45.32a10,10,0,0,1-17.66-.51,34,34,0,0,0,2.63,5.51A11.72,11.72,0,0,0,24.2,49.16L46.31,10.85a6.7,6.7,0,0,1,9.15-2.44,2.61,2.61,0,0,1,.28.17,31.81,31.81,0,0,0-4.07-3.15,8.36,8.36,0,0,0-10.4,2.63"/></clipPath><linearGradient id="名称未設定グラデーション_29-6" x1="2.05" y1="30.49" x2="55.74" y2="30.49" xlink:href="#名称未設定グラデーション_29"/><clipPath id="clip-path-2"><path class="cls-2" d="M.48,27.62A4.35,4.35,0,0,0,8.6,29.71L22,6.53A13.56,13.56,0,0,1,31.29,0,33.43,33.43,0,0,0,.48,27.62"/></clipPath><linearGradient id="名称未設定グラデーション_29-8" x1="0.48" y1="16.11" x2="31.29" y2="16.11" xlink:href="#名称未設定グラデーション_29"/><clipPath id="clip-path-3"><path class="cls-3" d="M34.17,2.42A11,11,0,0,1,39,1.32h.33c.38.2.76.41,1.1.62a10.7,10.7,0,0,0-4,2.31,13.41,13.41,0,0,0-2.21-1.84m-5.41,4L12.47,34.62A6.68,6.68,0,0,1,0,32c0,.43,0,.85,0,1.28a33.65,33.65,0,0,0,.47,5.59,8.36,8.36,0,0,0,15.24,1.74L35,7.25A10,10,0,0,1,46.5,2.64,32.06,32.06,0,0,0,39.85.57c-.3,0-.6,0-.9,0A11.75,11.75,0,0,0,28.76,6.41"/></clipPath><linearGradient id="名称未設定グラデーション_29-10" x1="0" y1="22.9" x2="46.5" y2="22.9" xlink:href="#名称未設定グラデーション_29"/><clipPath id="clip-path-4"><path class="cls-4" d="M52.82,12a5,5,0,0,0-1.28,1.46L29.1,52.3a13.39,13.39,0,0,1-18.27,4.9,13,13,0,0,1-2.4-1.77,33.31,33.31,0,0,0,47,2.84,31.27,31.27,0,0,0,2.82-2.82,11.85,11.85,0,0,1-2.37,1.74A13.36,13.36,0,0,1,37.63,52.3h0l-3.81-6.6,3.35-5.81,5.35,9.27A11.72,11.72,0,0,0,62,50.38,33.69,33.69,0,0,0,64.61,45a10.07,10.07,0,0,1-17.6.35L40.52,34.08l3.36-5.81L51,40.62a8.36,8.36,0,0,0,11.42,3.07h0A8.43,8.43,0,0,0,66.22,39a33.46,33.46,0,0,0,.5-5.74c0-.37,0-.75,0-1.12a6.71,6.71,0,0,1-12.45,2.46l-7-12.17,3.35-5.8,7.54,13.05a4.36,4.36,0,0,0,8.13-2,33.18,33.18,0,0,0-7.17-15.61A5,5,0,0,0,52.82,12"/></clipPath><linearGradient id="名称未設定グラデーション_29-12" x1="8.43" y1="38.79" x2="66.72" y2="38.79" xlink:href="#名称未設定グラデーション_29"/></defs><g id="レイヤー_2" data-name="レイヤー 2"><g id="レイヤー_1-2" data-name="レイヤー 1"><path class="cls-5" d="M100.18,6.85h10V38.4a41.92,41.92,0,0,1-.89,8.86,23.1,23.1,0,0,1-2.82,7.29,12.6,12.6,0,0,1-4,4.39,13.28,13.28,0,0,1-7,1.77,27.47,27.47,0,0,1-5.17-.54A10,10,0,0,1,85.59,58a15.14,15.14,0,0,1-3.45-4.57A21.12,21.12,0,0,1,80,47.35a50.11,50.11,0,0,1-.93-9V6.85h10v32.3a13.13,13.13,0,0,0,1.47,6.77,4.65,4.65,0,0,0,8.15,0,13.06,13.06,0,0,0,1.47-6.8Z"/><path class="cls-5" d="M138.46,38.13l8.79,4.34a36,36,0,0,1-2.79,10.07,15.53,15.53,0,0,1-4.73,6.11,11.91,11.91,0,0,1-7.19,2.06,14.09,14.09,0,0,1-8.65-2.51q-3.35-2.51-5.79-8.83T115.66,33.2q0-13.14,4.29-20.2t12.13-7.06A12.08,12.08,0,0,1,141.72,10q3.51,4,5.22,12.43l-8.86,3.21a17,17,0,0,0-1-3.54A7.81,7.81,0,0,0,135,19.2a4.17,4.17,0,0,0-2.72-1c-2.27,0-4,1.49-5.23,4.47-.91,2.22-1.37,5.69-1.37,10.43q0,8.8,1.64,12.07T132,48.43a4.7,4.7,0,0,0,4.35-2.64A22.27,22.27,0,0,0,138.46,38.13Z"/><path class="cls-5" d="M177.53,6.85V21.44h5V32.21h-5V45.8a11.7,11.7,0,0,0,.28,3.24,1.6,1.6,0,0,0,1.55,1.23,6.58,6.58,0,0,0,2.79-.94l.67,10.15a18.78,18.78,0,0,1-6.25,1.19,7.36,7.36,0,0,1-5-1.41A8.42,8.42,0,0,1,169.25,55a40,40,0,0,1-.76-9.29V32.21h-3.32V21.44h3.32v-7Z"/><path class="cls-5" d="M185.68,40.73q0-8.77,3.63-14.47t9.81-5.69q7.06,0,10.68,6.69a27.7,27.7,0,0,1,2.9,13.25q0,8.85-3.6,14.51a11.22,11.22,0,0,1-10,5.65A10.92,10.92,0,0,1,190,56Q185.68,50.16,185.68,40.73Zm9,0q0,5.13,1.28,7.59c.84,1.64,1.91,2.46,3.2,2.46s2.36-.81,3.2-2.42,1.25-4.21,1.25-7.77c0-3.32-.42-5.8-1.26-7.42s-1.89-2.44-3.13-2.44-2.4.82-3.25,2.47S194.71,37.32,194.71,40.69Z"/><path class="cls-5" d="M215.93,40.73q0-8.77,3.63-14.47t9.81-5.69q7.06,0,10.68,6.69A27.59,27.59,0,0,1,243,40.51q0,8.85-3.6,14.51a11.22,11.22,0,0,1-9.95,5.65A10.9,10.9,0,0,1,220.23,56Q215.93,50.16,215.93,40.73Zm9,0q0,5.13,1.27,7.59c.85,1.64,1.92,2.46,3.2,2.46s2.37-.81,3.2-2.42,1.25-4.21,1.25-7.77c0-3.32-.42-5.8-1.26-7.42s-1.88-2.44-3.12-2.44-2.4.82-3.26,2.47S225,37.32,225,40.69Z"/><path class="cls-5" d="M247.6,6.85h9v53h-9Z"/><path class="cls-5" d="M260.8,49.15l8.95-1.37a8.34,8.34,0,0,0,1.55,3.72A3.41,3.41,0,0,0,274,52.62a3.38,3.38,0,0,0,2.81-1.27,3.52,3.52,0,0,0,.78-2.34,3,3,0,0,0-1-2.45A13.07,13.07,0,0,0,272.65,45a28.17,28.17,0,0,1-6.52-2.47,8.64,8.64,0,0,1-3.08-3.84,14.66,14.66,0,0,1-1.25-6.17A14.68,14.68,0,0,1,263.15,26a9.28,9.28,0,0,1,3.72-4.09,12.83,12.83,0,0,1,6.36-1.36,14,14,0,0,1,6.21,1.05,8.6,8.6,0,0,1,3.35,3.25,21,21,0,0,1,2.22,6l-8.55,1.38a5.43,5.43,0,0,0-1.11-2.71,3.35,3.35,0,0,0-2.56-1.16,2.66,2.66,0,0,0-2.23.89,3.3,3.3,0,0,0-.7,2.14,2.59,2.59,0,0,0,.89,2.13,9.91,9.91,0,0,0,3.85,1.3,18,18,0,0,1,6.69,2.31,9.33,9.33,0,0,1,3.36,4.22,15.4,15.4,0,0,1,1.16,6,17.6,17.6,0,0,1-1.23,6.46,10.71,10.71,0,0,1-3.88,5,12.32,12.32,0,0,1-7.21,1.86q-6.44,0-9.18-3A15.6,15.6,0,0,1,260.8,49.15Z"/><g id="グループ_61" data-name="グループ 61"><g id="グループ_54" data-name="グループ 54"><path class="cls-1" d="M33.81,22.46l3.36-5.8,2.44,4.23L36.26,26.7Zm6.71-11.61,1-1.69c.09-.16.29-.48.41-.64a7.47,7.47,0,0,1,2.65-2.28l.18.29,1.64,2.85a8,8,0,0,0-.75,1.08L43,15.08Zm.75-2.79c-.16.23-.32.47-.46.71L19.71,45.32a10,10,0,0,1-17.66-.51,34,34,0,0,0,2.63,5.51A11.72,11.72,0,0,0,24.2,49.16L46.31,10.85a6.7,6.7,0,0,1,9.15-2.44,2.61,2.61,0,0,1,.28.17,31.81,31.81,0,0,0-4.07-3.15,8.36,8.36,0,0,0-10.4,2.63"/><g class="cls-6"><g id="グループ_53" data-name="グループ 53"><rect id="長方形_77" data-name="長方形 77" class="cls-7" x="2.05" y="4.6" width="53.69" height="51.78"/></g></g></g><g id="グループ_56" data-name="グループ 56"><path class="cls-2" d="M.48,27.62A4.35,4.35,0,0,0,8.6,29.71L22,6.53A13.56,13.56,0,0,1,31.29,0,33.43,33.43,0,0,0,.48,27.62"/><g class="cls-8"><g id="グループ_55" data-name="グループ 55"><rect id="長方形_78" data-name="長方形 78" class="cls-9" x="0.48" width="30.81" height="32.21"/></g></g></g><g id="グループ_58" data-name="グループ 58"><path class="cls-3" d="M34.17,2.42A11,11,0,0,1,39,1.32h.33c.38.2.76.41,1.1.62a10.7,10.7,0,0,0-4,2.31,13.41,13.41,0,0,0-2.21-1.84m-5.41,4L12.47,34.62A6.68,6.68,0,0,1,0,32c0,.43,0,.85,0,1.28a33.65,33.65,0,0,0,.47,5.59,8.36,8.36,0,0,0,15.24,1.74L35,7.25A10,10,0,0,1,46.5,2.64,32.06,32.06,0,0,0,39.85.57c-.3,0-.6,0-.9,0A11.75,11.75,0,0,0,28.76,6.41"/><g class="cls-10"><g id="グループ_57" data-name="グループ 57"><rect id="長方形_79" data-name="長方形 79" class="cls-11" y="0.53" width="46.5" height="44.73"/></g></g></g><g id="グループ_60" data-name="グループ 60"><path class="cls-4" d="M52.82,12a5,5,0,0,0-1.28,1.46L29.1,52.3a13.39,13.39,0,0,1-18.27,4.9,13,13,0,0,1-2.4-1.77,33.31,33.31,0,0,0,47,2.84,31.27,31.27,0,0,0,2.82-2.82,11.85,11.85,0,0,1-2.37,1.74A13.36,13.36,0,0,1,37.63,52.3h0l-3.81-6.6,3.35-5.81,5.35,9.27A11.72,11.72,0,0,0,62,50.38,33.69,33.69,0,0,0,64.61,45a10.07,10.07,0,0,1-17.6.35L40.52,34.08l3.36-5.81L51,40.62a8.36,8.36,0,0,0,11.42,3.07h0A8.43,8.43,0,0,0,66.22,39a33.46,33.46,0,0,0,.5-5.74c0-.37,0-.75,0-1.12a6.71,6.71,0,0,1-12.45,2.46l-7-12.17,3.35-5.8,7.54,13.05a4.36,4.36,0,0,0,8.13-2,33.18,33.18,0,0,0-7.17-15.61A5,5,0,0,0,52.82,12"/><g class="cls-12"><g id="グループ_59" data-name="グループ 59"><rect id="長方形_80" data-name="長方形 80" class="cls-13" x="8.43" y="10.92" width="58.29" height="55.73"/></g></g></g></g></g></g></svg>